<svg xmlns="http://www.w3.org/2000/svg" viewBox="0 0 157.59 156.35"><defs><style>.cls-1{fill:#96759f;}.cls-2{fill:#f4ebe6;}.cls-3,.cls-6,.cls-7{fill:none;stroke-miterlimit:10;}.cls-3,.cls-6{stroke:#000;}.cls-3,.cls-7{stroke-width:0.49px;}.cls-4{fill:#d8487c;}.cls-5{fill:#48a98b;}.cls-6{stroke-width:0.5px;}.cls-7{stroke:#03070d;}.cls-8{fill:#f69532;}.cls-9{fill:#999;}.cls-10{fill:#03070d;}</style></defs><g id="レイヤー_2" data-name="レイヤー 2"><g id="レイヤー_4" data-name="レイヤー 4"><path class="cls-1" d="M0,138.37s12.19-9.26,78.25-7.8,77.42,15.34,77.42,15.34-.34,13.61-7.84,9.75C140.68,152,102.9,140.17,76,140.76c-27.74.61-62.58,6.79-66,7.52S0,138.37,0,138.37Z"/><path class="cls-2" d="M51.48,120.83c-8.14,7.58-7.39,8.34-8.49,20.18s1.64,8,2.64,5.52-1.86-2.25,3.28-10.64,7.38-10.87,6.88-8.95-3.71,10-3.59,14.48S53,152,54.11,148.51s1.55-14.33,3.06-17.69,5-6.59,5.34-4.67-1.85,19.72.78,12.78,2.91-10.06,4.41-11.45S51.86,121,51.48,120.83Z"/><path class="cls-3" d="M51.48,120.83c-8.14,7.58-7.39,8.34-8.49,20.18s1.64,8,2.64,5.52-1.86-2.25,3.28-10.64,7.38-10.87,6.88-8.95-3.71,10-3.59,14.48S53,152,54.11,148.51s1.55-14.33,3.06-17.69,5-6.59,5.34-4.67-1.85,19.72.78,12.78,2.91-10.06,4.41-11.45S51.86,121,51.48,120.83Z"/><path class="cls-4" d="M50,123.18c2.86,1.82,2.82,1.89,5.68,3.71"/><path class="cls-3" d="M50,123.18c2.86,1.82,2.82,1.89,5.68,3.71"/><path class="cls-4" d="M47.37,127l5.39,3.39"/><path class="cls-3" d="M47.37,127l5.39,3.39"/><path class="cls-4" d="M45.14,131.32c2.85,1.39,2.86,1.36,5.71,2.75"/><path class="cls-3" d="M45.14,131.32c2.85,1.39,2.86,1.36,5.71,2.75"/><path class="cls-4" d="M43.51,136c2.6.84,2.59.86,5.18,1.69"/><path class="cls-3" d="M43.51,136c2.6.84,2.59.86,5.18,1.69"/><path class="cls-4" d="M42.69,139.61c2.11.58,2.09.66,4.2,1.24"/><path class="cls-3" d="M42.69,139.61c2.11.58,2.09.66,4.2,1.24"/><path class="cls-4" d="M42.76,142.33c1.64.22,1.63.27,3.27.49"/><path class="cls-3" d="M42.76,142.33c1.64.22,1.63.27,3.27.49"/><path class="cls-4" d="M42.35,145.57l2.52.3"/><path class="cls-3" d="M42.35,145.57l2.52.3"/><path class="cls-4" d="M55.66,127.71a11.23,11.23,0,0,1,3.11.24"/><path class="cls-3" d="M55.66,127.71a11.23,11.23,0,0,1,3.11.24"/><path class="cls-4" d="M54.68,130.07c2,.21,2,.23,4,.43"/><path class="cls-3" d="M54.68,130.07c2,.21,2,.23,4,.43"/><path class="cls-4" d="M53.84,133.16c1.59.33,1.58.39,3.17.72"/><path class="cls-3" d="M53.84,133.16c1.59.33,1.58.39,3.17.72"/><path class="cls-4" d="M53,136.22c1.78,0,1.78,0,3.57,0"/><path class="cls-3" d="M53,136.22c1.78,0,1.78,0,3.57,0"/><path class="cls-4" d="M52.87,139.67c1.51,0,1.51-.11,3-.11"/><path class="cls-3" d="M52.87,139.67c1.51,0,1.51-.11,3-.11"/><path class="cls-4" d="M52.35,143.08h3.14"/><path class="cls-3" d="M52.35,143.08h3.14"/><path class="cls-4" d="M52.57,145.46l2.51.11"/><path class="cls-3" d="M52.57,145.46l2.51.11"/><path class="cls-4" d="M61.76,128.25l4.66.79"/><path class="cls-3" d="M61.76,128.25l4.66.79"/><path class="cls-4" d="M61.72,130.26c2.05.64,2,.67,4.08,1.3"/><path class="cls-3" d="M61.72,130.26c2.05.64,2,.67,4.08,1.3"/><path class="cls-4" d="M62,132.92,65,134"/><path class="cls-3" d="M62,132.92,65,134"/><path class="cls-4" d="M62,136.57c1,.29,1,.33,2.08.62"/><path class="cls-3" d="M62,136.57c1,.29,1,.33,2.08.62"/><path class="cls-2" d="M92.28,125.37c-1.48.63-.06,1.67-.63,3.68a33.22,33.22,0,0,0-1.68,14c1.26,11.51,4.25,3.34,4.89-1.54s.61-8.73,1.61-11.13,4.25-6.09,4-3.7a77.34,77.34,0,0,0-.36,9.22c0,4.79,1.24,10.2,2.62,4.21s.88-11,3-14.24.67,1.26,1.44,4.37,2.28,5.07,2.53-1,.11-9.31.74-9.91S101.15,121.61,92.28,125.37Z"/><path class="cls-3" d="M92.28,125.37c-1.48.63-.06,1.67-.63,3.68a33.22,33.22,0,0,0-1.68,14c1.26,11.51,4.25,3.34,4.89-1.54s.61-8.73,1.61-11.13,4.25-6.09,4-3.7a77.34,77.34,0,0,0-.36,9.22c0,4.79,1.24,10.2,2.62,4.21s.88-11,3-14.24.67,1.26,1.44,4.37,2.28,5.07,2.53-1,.11-9.31.74-9.91S101.15,121.61,92.28,125.37Z"/><path class="cls-3" d="M91.4,128.86c3.11-.17,3.12.07,6.23-.1"/><path class="cls-3" d="M90.32,133.29c2.79-.19,2.78-.37,5.57-.56"/><path class="cls-3" d="M90.59,137.26c2.23,0,2.23,0,4.47,0"/><path class="cls-3" d="M94.11,141.46c-1.76-.18-1.76-.16-3.52-.33"/><path class="cls-3" d="M90.84,144.87c1.5,0,1.5,0,3,0"/><path class="cls-3" d="M99.87,127.82c2.37,0,2.37-.12,4.74-.12"/><path class="cls-3" d="M99.87,130.54h4.43"/><path class="cls-3" d="M99.78,134c2,.14,2,.2,3.94.34"/><path class="cls-3" d="M99.88,137.58c1.72.11,1.72.18,3.45.29"/><path class="cls-3" d="M100.45,140.16c1.22,0,1.22-.08,2.45,0"/><path class="cls-3" d="M106.91,125.24c1.47-.52,1.52-.36,3-.88"/><path class="cls-3" d="M107.41,127.71c1.17-.39,1.19-.34,2.36-.72"/><path class="cls-3" d="M107.4,130.18c1.18,0,1.18.07,2.37.07"/><path class="cls-5" d="M52.46,102.37c-5.41,6.29-13.18,6.58-7,11,6.88,4.88-9.06-4-18.18-11.65C22.28,97.47,16.82,94,13.61,89,9.3,82.4,3.9,76.09,3.62,71.89c-.46-6.88,1.82-14,2.93-20.75,1.07-6.44,4.63-12,9.18-18A53.51,53.51,0,0,1,30.57,19.58c13.07-8.15,27.72-2.85,30.48-2.25,1.57.34-1.61,10.57-7.72,21.94C48.67,47.94,39.09,55.09,38,60.22,35.32,72.07,42.21,79.28,43,86.05,43.78,92.15,50.73,100.1,52.46,102.37Z"/><path class="cls-6" d="M48.81,99.23c-5.41,6.3-10.74,11.42-4.56,15.8,6.88,4.89-9.23-4-18.35-11.71-5-4.21-10.18-8.66-13.39-13.59C8.2,83.11,7.94,75.82,7.66,71.62,7.2,64.74,8.8,58.42,9.91,51.7c1.07-6.44.73-13,5.28-19,3.58-4.7,6.6-12,13.43-16.3,13.06-8.14,30.09-1.63,32.85-1,1.57.34-2,12.52-8.1,23.89C48.71,48,38.67,55,37.53,60.12c-2.63,11.86,4.26,19.21,5.08,26C43.36,92.2,47.09,97,48.81,99.23Z"/><path class="cls-2" d="M24.83,62.78c.83-3.7,10.25-6.65,17.66-9.19,6.64-2.28,16.3-2,18.64-5.83,3.33-5.44-6.88-33.46-5.64-33,2,.73,7.37,4.32,8.94,4.36s34.17-1.21,35,.12-3.6,16.12.94,22c5.14,6.65,10.62,12.54,15.43,18.3,5.23,6.27,12.28,10.54,14,18.57,1.42,6.52,1.17,14.23-1.62,23.66-1.44,4.87-6.22,9.92-12.42,14.58-4.76,3.59-10.74,6-17.31,8.12-6.24,2-13.12,5.61-19.74,5.46-8.43-.19-15-6-18.8-7.69-7-3.09-16.87-4.24-22.61-10.86-5.23-6-4.91-15.66-7.06-24C28.39,79.84,22.83,71.66,24.83,62.78Z"/><path class="cls-7" d="M24.83,62.78c.83-3.7,10.25-6.65,17.66-9.19,6.64-2.28,16.3-2,18.64-5.83,3.33-5.44-6.88-33.46-5.64-33,2,.73,7.37,4.32,8.94,4.36s34.17-1.21,35,.12-3.6,16.12.94,22c5.14,6.65,10.62,12.54,15.43,18.3,5.23,6.27,12.28,10.54,14,18.57,1.42,6.52,1.17,14.23-1.62,23.66-1.44,4.87-6.22,9.92-12.42,14.58-4.76,3.59-10.74,6-17.31,8.12-6.24,2-13.12,5.61-19.74,5.46-8.43-.19-15-6-18.8-7.69-7-3.09-16.87-4.24-22.61-10.86-5.23-6-4.91-15.66-7.06-24C28.39,79.84,22.83,71.66,24.83,62.78Z"/><path class="cls-8" d="M25.18,63.44C25,56.27,29.28,42,35.87,31.2,40.8,23.13,54.54,15.47,55.5,15.72c2,.52,13.39-2.54,15-2.68,7.37-.65,28.74,4.82,29.61,5.76s-.42,16.08,2.55,20.87,12.88,6.16,16.54,16.9c-5.53,2.59-15.44,5.29-22.27,9.63C90.93,70,85.48,75.09,79,78.32c-6.77,3.36-13.21,6.83-20.07,7.62-5.6.65-15.61,2.11-22.37-2.1C31,80.36,25.46,72.46,25.18,63.44Z"/><path class="cls-3" d="M26.53,63.4c-.22-7.17,3.34-21.08,9.93-31.84,4.93-8.07,18.07-16,19-15.81,2,.52,13.81,2,15.37,1.9,7.36-.66,25.47,2.82,26.34,3.77S101,34.05,104,38.84s11.7,6.93,15.36,17.67c-5.53,2.59-13.2,9.14-20,13.48-6,3.78-13.07,6.59-19.55,9.81C73,83.17,65.5,82.71,58.65,83.5c-5.6.64-15.14,4.25-21.91,0C31.15,80.06,26.81,72.42,26.53,63.4Z"/><path class="cls-9" d="M70.8,6c6.67-7,10.52-7.37,18.72-3.79,15,6.55,15,15.79,13.67,19.29-.89,2.28-6.68,4.92-19.72-.08-3.54-1.35-8.75-5.25-10.48-8.71C71.46,9.64,68.28,8.67,70.8,6Z"/><path class="cls-3" d="M71,6.46c8.22-5.1,10-7.12,18.21-3.54,15,6.55,15.54,15.17,14.16,18.67"/><path class="cls-2" d="M50.3,4c8.05,4.67,8.57,3.79,16.61,8.46.09,0-.19.57-.28.54-8.18-3.38-8.14-3.47-16.32-6.84-.13,0,.18-.22.24-.11,1,1.71,4.53,10.81,10.45,12.84,5.26,1.8,10.8.07,16.46-3.54.72-.46,2.43-6.43-7.53-10C61.69,2.47,53.35,2.9,50.79,2.94,50.54,3,50.09,3.89,50.3,4Z"/><path class="cls-3" d="M50.3,4c8.05,4.67,8.57,3.79,16.61,8.46.09,0-.19.57-.28.54-8.18-3.38-8.14-3.47-16.32-6.84-.13,0,.18-.22.24-.11,1,1.71,4.53,10.81,10.45,12.84,5.26,1.8,10.8.07,16.46-3.54.72-.46,2.43-6.43-7.53-10C61.69,2.47,53.35,2.9,50.79,2.94,50.54,3,50.09,3.89,50.3,4Z"/><path class="cls-10" d="M79.15,8.86c.91-1.07,4.35-.28,4.94,0s3.26,3.27,3.06,4.36-1.51-2.83-3.29-4S77.67,10.59,79.15,8.86Z"/><path class="cls-3" d="M79.15,8.86c.91-1.07,4.35-.28,4.94,0s3.26,3.27,3.06,4.36-1.51-2.83-3.29-4S77.67,10.59,79.15,8.86Z"/><path class="cls-5" d="M100.16,23c2-3.61,5.87-8.21,18-6.6,11,1.45,20.42,3.54,25.91,9,7.33,7.22,8.17,18.27,9.75,25.64,1.48,7,.44,16.72-2,27.24-2.08,9-4,18.56-9.7,25.81-13,16.48-28,13.7-22.25,6.86s6.65-17.95,5-25.14c-1.59-6.92-4.37-7.5-14.08-20.23C108,61.75,104.71,58.86,100,50.7,97.69,46.77,95.42,31.41,100.16,23Z"/><path class="cls-3" d="M100.53,23.16c2-3.61,5.42-7.78,17.59-6.17,11,1.45,18.66,4.78,24.15,10.19,7.32,7.22,12.22,15.92,13.79,23.29a70.35,70.35,0,0,1-.38,28.6A68.53,68.53,0,0,1,143.42,105c-13,16.48-31.79,10.58-26,3.74s3.9-14.63,2.25-21.82c-1.59-6.92,2.85-10.2-6.86-22.94-2.85-3.73-7.32-5.56-12.06-13.72C98.47,46.32,95.79,31.62,100.53,23.16Z"/></g></g></svg>