<svg xmlns="http://www.w3.org/2000/svg" viewBox="0 0 154.03 149.87"><defs><style>.cls-1,.cls-6{fill:#f4ebe6;}.cls-1,.cls-2,.cls-3,.cls-5{stroke:#000;}.cls-1,.cls-2,.cls-3,.cls-5,.cls-7{stroke-miterlimit:10;}.cls-1,.cls-2,.cls-3,.cls-7{stroke-width:0.49px;}.cls-2{fill:#d8487c;}.cls-3,.cls-5,.cls-7{fill:none;}.cls-4{fill:#96759f;}.cls-5{stroke-width:0.5px;}.cls-7{stroke:#03070d;}.cls-8{fill:#f93f87;}.cls-9{fill:#999;}.cls-10{fill:#03070d;}</style></defs><g id="レイヤー_2" data-name="レイヤー 2"><g id="レイヤー_4" data-name="レイヤー 4"><path class="cls-1" d="M48.21,121.14s-8.06,8-9.16,19.84,1.56,7.88,2.56,5.36-.8-1.69,4.34-10.08,6.66-11.27,6.16-9.35-3.52,10.07-3.39,14.5,1,10.68,2.13,7.2,1.88-14.15,3.39-17.51,3.51-6.71,3.89-4.79S57,145.83,59.64,138.89s3.14-9.87,4.64-11.26S48.59,121.28,48.21,121.14Z"/><line class="cls-2" x1="46.38" y1="123.26" x2="52.11" y2="126.91"/><line class="cls-2" x1="43.87" y1="126.91" x2="49.24" y2="130.31"/><line class="cls-2" x1="41.61" y1="131.24" x2="47.32" y2="134.02"/><line class="cls-2" x1="39.97" y1="135.92" x2="45.15" y2="137.59"/><line class="cls-2" x1="39.14" y1="139.6" x2="43.36" y2="140.76"/><line class="cls-2" x1="39.2" y1="142.33" x2="42.48" y2="142.78"/><line class="cls-2" x1="38.79" y1="145.6" x2="41.3" y2="145.91"/><path class="cls-2" d="M52.11,127.65a17.33,17.33,0,0,1,3.11.28"/><line class="cls-2" x1="51.12" y1="130.15" x2="55.08" y2="130.57"/><line class="cls-2" x1="50.27" y1="133.2" x2="53.45" y2="133.87"/><line class="cls-2" x1="49.39" y1="136.27" x2="52.96" y2="136.27"/><line class="cls-2" x1="49.31" y1="139.6" x2="52.33" y2="139.6"/><line class="cls-2" x1="48.79" y1="143" x2="51.94" y2="143"/><line class="cls-2" x1="49.01" y1="145.51" x2="51.52" y2="145.6"/><line class="cls-2" x1="58.19" y1="128.33" x2="62.85" y2="129.1"/><line class="cls-2" x1="58.15" y1="130.31" x2="62.24" y2="131.58"/><line class="cls-2" x1="58.42" y1="132.94" x2="61.39" y2="134.02"/><line class="cls-2" x1="58.42" y1="136.58" x2="60.52" y2="137.17"/><path class="cls-1" d="M89,126a14,14,0,0,0-1.13,3A37.11,37.11,0,0,0,87,143c1.26,11.51,2.87,3.31,3.52-1.57a45.09,45.09,0,0,1,2.59-10.93c1-2.4,3.51-6.25,3.25-3.85a92.27,92.27,0,0,0-.19,9.27c0,4.79,1.75,10.24,3.13,4.25S99.82,129,102,125.74s1.11,1.35,1.88,4.47,2,5.11,2.28-1,.27-9.18.89-9.78S89,126,89,126Z"/><line class="cls-3" x1="87.85" y1="128.98" x2="94.07" y2="128.64"/><line class="cls-3" x1="86.75" y1="133.17" x2="92.34" y2="132.78"/><line class="cls-3" x1="87.03" y1="137.24" x2="91.5" y2="137.24"/><line class="cls-3" x1="90.56" y1="141.43" x2="87.03" y2="141.08"/><line class="cls-3" x1="87.28" y1="144.93" x2="90.29" y2="144.93"/><line class="cls-3" x1="96.31" y1="127.74" x2="101.05" y2="127.74"/><line class="cls-3" x1="96.31" y1="130.67" x2="100.74" y2="130.67"/><line class="cls-3" x1="96.21" y1="134.12" x2="100.16" y2="134.39"/><line class="cls-3" x1="96.31" y1="137.67" x2="99.77" y2="137.89"/><line class="cls-3" x1="96.89" y1="140.11" x2="99.34" y2="140.17"/><line class="cls-3" x1="103.38" y1="125.32" x2="106.31" y2="124.28"/><line class="cls-3" x1="103.86" y1="127.74" x2="106.21" y2="126.97"/><line class="cls-3" x1="103.84" y1="130.21" x2="106.21" y2="130.21"/><path class="cls-4" d="M48.9,102.37c-5.41,6.29-13.18,6.58-7,11,6.88,4.88-9.06-4-18.18-11.65C18.72,97.47,13.26,94,10.05,89,5.74,82.4.34,76.09.06,71.89-.4,65,1.88,57.86,3,51.14c1.07-6.44,4.63-12,9.18-18A53.51,53.51,0,0,1,27,19.58c13.07-8.15,27.73-2.85,30.48-2.25,1.57.34-1.61,10.57-7.72,21.94-4.66,8.67-14.24,15.82-15.38,20.95-2.63,11.85,4.26,19.06,5.09,25.83C40.23,92.15,47.18,100.1,48.9,102.37Z"/><path class="cls-5" d="M45.25,99.23c-5.41,6.3-10.74,11.42-4.56,15.8,6.89,4.89-9.23-4-18.35-11.71-5-4.21-10.18-8.66-13.39-13.59C4.65,83.11,4.38,75.82,4.1,71.62c-.46-6.88,1.14-13.2,2.25-19.92,1.07-6.44.73-13,5.28-19,3.58-4.7,6.6-12,13.43-16.3,13.06-8.14,30.1-1.63,32.85-1,1.57.34-2,12.52-8.1,23.89C45.15,48,35.11,55,34,60.12c-2.63,11.86,4.26,19.21,5.09,26C39.8,92.2,43.53,97,45.25,99.23Z"/><path class="cls-6" d="M21.27,62.78c.83-3.7,10.26-6.65,17.66-9.19,6.64-2.28,16.3-2,18.64-5.83,3.33-5.44-6.87-33.46-5.64-33,2,.73,7.37,4.32,8.94,4.36s34.17-1.21,35,.12-3.61,16.12.93,22c5.14,6.65,10.62,12.54,15.43,18.3,5.23,6.27,12.28,10.54,14,18.57,1.42,6.52,1.17,14.23-1.62,23.66-1.44,4.87-6.22,9.92-12.41,14.58-4.77,3.59-10.75,6-17.32,8.12-6.24,2-13.12,5.61-19.74,5.46-8.43-.19-15-6-18.8-7.69-7-3.09-16.87-4.24-22.6-10.86-5.24-6-4.92-15.66-7.06-24C24.83,79.84,19.28,71.66,21.27,62.78Z"/><path class="cls-7" d="M21.27,62.78c.83-3.7,10.26-6.65,17.66-9.19,6.64-2.28,16.3-2,18.64-5.83,3.33-5.44-6.87-33.46-5.64-33,2,.73,7.37,4.32,8.94,4.36s34.17-1.21,35,.12-3.61,16.12.93,22c5.14,6.65,10.62,12.54,15.43,18.3,5.23,6.27,12.28,10.54,14,18.57,1.42,6.52,1.17,14.23-1.62,23.66-1.44,4.87-6.22,9.92-12.41,14.58-4.77,3.59-10.75,6-17.32,8.12-6.24,2-13.12,5.61-19.74,5.46-8.43-.19-15-6-18.8-7.69-7-3.09-16.87-4.24-22.6-10.86-5.24-6-4.92-15.66-7.06-24C24.83,79.84,19.28,71.66,21.27,62.78Z"/><path class="cls-8" d="M21.62,63.44C21.4,56.27,25.72,42,32.31,31.2,37.25,23.13,51,15.47,51.94,15.72c2,.52,13.39-2.54,15-2.68,7.37-.65,28.74,4.82,29.61,5.76s-.42,16.08,2.55,20.87,12.89,6.16,16.54,16.9c-5.52,2.59-15.44,5.29-22.26,9.63-6,3.79-11.41,8.89-17.89,12.12-6.77,3.36-13.21,6.83-20.06,7.62-5.61.65-15.61,2.11-22.38-2.1C27.41,80.36,21.9,72.46,21.62,63.44Z"/><path class="cls-3" d="M23,63.4c-.22-7.17,3.34-21.08,9.93-31.84,4.93-8.07,18.07-16,19-15.81,2,.52,13.81,2,15.37,1.9,7.37-.66,25.47,2.82,26.34,3.77s3.79,12.63,6.76,17.42,11.7,6.93,15.36,17.67c-5.52,2.59-13.2,9.14-20,13.48-6,3.78-13.07,6.59-19.55,9.81-6.77,3.37-14.24,2.91-21.09,3.7-5.6.64-15.14,4.25-21.91,0C27.59,80.06,23.25,72.42,23,63.4Z"/><path class="cls-9" d="M67.24,6C73.91-1,77.76-1.35,86,2.23,100.94,8.78,101,18,99.64,21.52c-.9,2.28-6.69,4.92-19.73-.08-3.54-1.35-8.75-5.25-10.48-8.71C67.9,9.64,64.73,8.67,67.24,6Z"/><path class="cls-3" d="M67.45,6.46c8.23-5.1,10-7.12,18.21-3.54,15,6.55,15.54,15.17,14.16,18.67"/><path class="cls-6" d="M46.75,4c8,4.67,8.56,3.79,16.6,8.46.09,0-.19.57-.28.54-8.18-3.38-8.14-3.47-16.32-6.84-.12,0,.18-.22.25-.11,1,1.71,4.52,10.81,10.45,12.84,5.25,1.8,10.79.07,16.45-3.54.72-.46,2.43-6.43-7.52-10C58.14,2.47,49.79,2.9,47.23,2.94,47,3,46.54,3.89,46.75,4Z"/><path class="cls-3" d="M46.75,4c8,4.67,8.56,3.79,16.6,8.46.09,0-.19.57-.28.54-8.18-3.38-8.14-3.47-16.32-6.84-.12,0,.18-.22.25-.11,1,1.71,4.52,10.81,10.45,12.84,5.25,1.8,10.79.07,16.45-3.54.72-.46,2.43-6.43-7.52-10C58.14,2.47,49.79,2.9,47.23,2.94,47,3,46.54,3.89,46.75,4Z"/><path class="cls-10" d="M75.59,8.86c.91-1.07,4.35-.28,4.94,0s3.26,3.27,3.07,4.36-1.52-2.83-3.3-4S74.11,10.59,75.59,8.86Z"/><path class="cls-3" d="M75.59,8.86c.91-1.07,4.35-.28,4.94,0s3.26,3.27,3.07,4.36-1.52-2.83-3.3-4S74.11,10.59,75.59,8.86Z"/><path class="cls-4" d="M95.82,22.51c2-3.61,6.75-8.5,18.93-6.89,11,1.45,19.37,5.24,24.86,10.65,7.33,7.22,11.14,16.87,12.72,24.24,1.48,7,0,17.51-2.46,28a64,64,0,0,1-11.72,25.09c-13,16.48-27.92,13.77-22.13,6.93s5.92-17.42,4.26-24.61c-1.59-6.92-2.82-8.1-12.53-20.84-2.85-3.72-9-4.86-13.73-13C91.74,48.16,91.08,31,95.82,22.51Z"/><path class="cls-3" d="M97,23.16c2-3.61,5.41-7.78,17.58-6.17,11,1.45,18.66,4.78,24.15,10.19,7.33,7.22,12.22,15.92,13.8,23.29a70.37,70.37,0,0,1-.39,28.6A68.53,68.53,0,0,1,139.86,105c-13,16.48-31.79,10.58-26,3.74s3.91-14.63,2.26-21.82C114.53,80,119,76.71,109.25,64c-2.84-3.73-7.32-5.56-12-13.72C94.92,46.32,92.24,31.62,97,23.16Z"/></g></g></svg>