<svg xmlns="http://www.w3.org/2000/svg" viewBox="0 0 154.03 149.78"><defs><style>.cls-1{fill:#f4ebe6;}.cls-2,.cls-5,.cls-6{fill:none;stroke-miterlimit:10;}.cls-2,.cls-5{stroke:#000;}.cls-2,.cls-6{stroke-width:0.49px;}.cls-3{fill:#d8487c;}.cls-4{fill:#91bd70;}.cls-5{stroke-width:0.5px;}.cls-6{stroke:#03070d;}.cls-7{fill:#f69532;}.cls-8{fill:#999;}.cls-9{fill:#03070d;}</style></defs><g id="レイヤー_2" data-name="レイヤー 2"><g id="レイヤー_4" data-name="レイヤー 4"><path class="cls-1" d="M47.92,120.83c-8.14,7.58-7.39,8.34-8.49,20.18s1.64,8,2.64,5.52-1.86-2.25,3.29-10.64,7.38-10.87,6.87-8.95-3.71,10-3.59,14.48.78,10.57,1.91,7.09,1.55-14.33,3.06-17.69,5-6.59,5.34-4.67-1.85,19.72.78,12.78,2.91-10.06,4.41-11.45S48.3,121,47.92,120.83Z"/><path class="cls-2" d="M47.92,120.83c-8.14,7.58-7.39,8.34-8.49,20.18s1.64,8,2.64,5.52-1.86-2.25,3.29-10.64,7.38-10.87,6.87-8.95-3.71,10-3.59,14.48.78,10.57,1.91,7.09,1.55-14.33,3.06-17.69,5-6.59,5.34-4.67-1.85,19.72.78,12.78,2.91-10.06,4.41-11.45S48.3,121,47.92,120.83Z"/><path class="cls-3" d="M46.43,123.18c2.86,1.82,2.82,1.89,5.68,3.71"/><path class="cls-2" d="M46.43,123.18c2.86,1.82,2.82,1.89,5.68,3.71"/><path class="cls-3" d="M43.81,127l5.39,3.39"/><path class="cls-2" d="M43.81,127l5.39,3.39"/><path class="cls-3" d="M41.58,131.32c2.85,1.39,2.86,1.36,5.72,2.75"/><path class="cls-2" d="M41.58,131.32c2.85,1.39,2.86,1.36,5.72,2.75"/><path class="cls-3" d="M40,136c2.6.84,2.59.86,5.18,1.69"/><path class="cls-2" d="M40,136c2.6.84,2.59.86,5.18,1.69"/><path class="cls-3" d="M39.14,139.61c2.1.58,2.08.66,4.19,1.24"/><path class="cls-2" d="M39.14,139.61c2.1.58,2.08.66,4.19,1.24"/><path class="cls-3" d="M39.2,142.33c1.64.22,1.63.27,3.27.49"/><path class="cls-2" d="M39.2,142.33c1.64.22,1.63.27,3.27.49"/><path class="cls-3" d="M38.79,145.57l2.52.3"/><path class="cls-2" d="M38.79,145.57l2.52.3"/><path class="cls-3" d="M52.1,127.71a11.14,11.14,0,0,1,3.11.24"/><path class="cls-2" d="M52.1,127.71a11.14,11.14,0,0,1,3.11.24"/><path class="cls-3" d="M51.12,130.07c2,.21,2,.23,4,.43"/><path class="cls-2" d="M51.12,130.07c2,.21,2,.23,4,.43"/><path class="cls-3" d="M50.28,133.16c1.59.33,1.58.39,3.17.72"/><path class="cls-2" d="M50.28,133.16c1.59.33,1.58.39,3.17.72"/><path class="cls-3" d="M49.39,136.22c1.78,0,1.78,0,3.57,0"/><path class="cls-2" d="M49.39,136.22c1.78,0,1.78,0,3.57,0"/><path class="cls-3" d="M49.31,139.67c1.51,0,1.51-.11,3-.11"/><path class="cls-2" d="M49.31,139.67c1.51,0,1.51-.11,3-.11"/><path class="cls-3" d="M48.79,143.08h3.15"/><path class="cls-2" d="M48.79,143.08h3.15"/><path class="cls-3" d="M49,145.46l2.51.11"/><path class="cls-2" d="M49,145.46l2.51.11"/><path class="cls-3" d="M58.2,128.25l4.66.79"/><path class="cls-2" d="M58.2,128.25l4.66.79"/><path class="cls-3" d="M58.16,130.26c2.05.64,2,.67,4.09,1.3"/><path class="cls-2" d="M58.16,130.26c2.05.64,2,.67,4.09,1.3"/><path class="cls-3" d="M58.43,132.92l3,1.09"/><path class="cls-2" d="M58.43,132.92l3,1.09"/><path class="cls-3" d="M58.43,136.57c1,.29,1,.33,2.08.62"/><path class="cls-2" d="M58.43,136.57c1,.29,1,.33,2.08.62"/><path class="cls-1" d="M88.72,125.37c-1.47.63-.06,1.67-.63,3.68a33.22,33.22,0,0,0-1.68,14c1.26,11.51,4.25,3.34,4.89-1.54s.61-8.73,1.61-11.13,4.25-6.09,4-3.7a79.59,79.59,0,0,0-.36,9.22c0,4.79,1.24,10.2,2.62,4.21s.88-11,3-14.24.67,1.26,1.44,4.37,2.28,5.07,2.53-1,.11-9.31.74-9.91S97.59,121.61,88.72,125.37Z"/><path class="cls-2" d="M88.72,125.37c-1.47.63-.06,1.67-.63,3.68a33.22,33.22,0,0,0-1.68,14c1.26,11.51,4.25,3.34,4.89-1.54s.61-8.73,1.61-11.13,4.25-6.09,4-3.7a79.59,79.59,0,0,0-.36,9.22c0,4.79,1.24,10.2,2.62,4.21s.88-11,3-14.24.67,1.26,1.44,4.37,2.28,5.07,2.53-1,.11-9.31.74-9.91S97.59,121.61,88.72,125.37Z"/><path class="cls-2" d="M87.84,128.86c3.11-.17,3.12.07,6.23-.1"/><path class="cls-2" d="M86.76,133.29c2.79-.19,2.78-.37,5.57-.56"/><path class="cls-2" d="M87,137.26c2.24,0,2.24,0,4.47,0"/><path class="cls-2" d="M90.55,141.46c-1.76-.18-1.76-.16-3.52-.33"/><path class="cls-2" d="M87.28,144.87c1.5,0,1.5,0,3,0"/><path class="cls-2" d="M96.31,127.82c2.37,0,2.37-.12,4.74-.12"/><path class="cls-2" d="M96.31,130.54h4.43"/><path class="cls-2" d="M96.22,134c2,.14,2,.2,4,.34"/><path class="cls-2" d="M96.32,137.58c1.72.11,1.72.18,3.45.29"/><path class="cls-2" d="M96.89,140.16c1.22,0,1.22-.08,2.45,0"/><path class="cls-2" d="M103.35,125.24c1.47-.52,1.52-.36,3-.88"/><path class="cls-2" d="M103.85,127.71c1.17-.39,1.19-.34,2.36-.72"/><path class="cls-2" d="M103.84,130.18c1.18,0,1.18.07,2.37.07"/><path class="cls-4" d="M48.9,102.37c-5.41,6.29-13.18,6.58-7,11,6.88,4.88-9.06-4-18.18-11.65C18.72,97.47,13.26,94,10.05,89,5.74,82.4.34,76.09.06,71.89-.4,65,1.88,57.86,3,51.14c1.07-6.44,4.63-12,9.18-18A53.51,53.51,0,0,1,27,19.58c13.07-8.15,27.73-2.85,30.48-2.25,1.57.34-1.61,10.57-7.72,21.94-4.66,8.67-14.24,15.82-15.38,20.95-2.63,11.85,4.26,19.06,5.09,25.83C40.23,92.15,47.18,100.1,48.9,102.37Z"/><path class="cls-5" d="M45.25,99.23c-5.41,6.3-10.74,11.42-4.56,15.8,6.89,4.89-9.23-4-18.35-11.71-5-4.21-10.18-8.66-13.39-13.59C4.65,83.11,4.38,75.82,4.1,71.62c-.46-6.88,1.14-13.2,2.25-19.92,1.07-6.44.73-13,5.28-19,3.58-4.7,6.6-12,13.43-16.3,13.06-8.14,30.1-1.63,32.85-1,1.57.34-2,12.52-8.1,23.89C45.15,48,35.11,55,34,60.12c-2.63,11.86,4.26,19.21,5.09,26C39.8,92.2,43.53,97,45.25,99.23Z"/><path class="cls-1" d="M21.27,62.78c.83-3.7,10.26-6.65,17.66-9.19,6.64-2.28,16.3-2,18.64-5.83,3.33-5.44-6.87-33.46-5.64-33,2,.73,7.37,4.32,8.94,4.36s34.17-1.21,35,.12-3.61,16.12.93,22c5.14,6.65,10.62,12.54,15.43,18.3,5.23,6.27,12.28,10.54,14,18.57,1.42,6.52,1.17,14.23-1.62,23.66-1.44,4.87-6.22,9.92-12.41,14.58-4.77,3.59-10.75,6-17.32,8.12-6.24,2-13.12,5.61-19.74,5.46-8.43-.19-15-6-18.8-7.69-7-3.09-16.87-4.24-22.6-10.86-5.24-6-4.92-15.66-7.06-24C24.83,79.84,19.28,71.66,21.27,62.78Z"/><path class="cls-6" d="M21.27,62.78c.83-3.7,10.26-6.65,17.66-9.19,6.64-2.28,16.3-2,18.64-5.83,3.33-5.44-6.87-33.46-5.64-33,2,.73,7.37,4.32,8.94,4.36s34.17-1.21,35,.12-3.61,16.12.93,22c5.14,6.65,10.62,12.54,15.43,18.3,5.23,6.27,12.28,10.54,14,18.57,1.42,6.52,1.17,14.23-1.62,23.66-1.44,4.87-6.22,9.92-12.41,14.58-4.77,3.59-10.75,6-17.32,8.12-6.24,2-13.12,5.61-19.74,5.46-8.43-.19-15-6-18.8-7.69-7-3.09-16.87-4.24-22.6-10.86-5.24-6-4.92-15.66-7.06-24C24.83,79.84,19.28,71.66,21.27,62.78Z"/><path class="cls-7" d="M21.62,63.44C21.4,56.27,25.72,42,32.31,31.2,37.25,23.13,51,15.47,51.94,15.72c2,.52,13.39-2.54,15-2.68,7.37-.65,28.74,4.82,29.61,5.76s-.42,16.08,2.55,20.87,12.89,6.16,16.54,16.9c-5.52,2.59-15.44,5.29-22.26,9.63-6,3.79-11.41,8.89-17.89,12.12-6.77,3.36-13.21,6.83-20.06,7.62-5.61.65-15.61,2.11-22.38-2.1C27.41,80.36,21.9,72.46,21.62,63.44Z"/><path class="cls-2" d="M23,63.4c-.22-7.17,3.34-21.08,9.93-31.84,4.93-8.07,18.07-16,19-15.81,2,.52,13.81,2,15.37,1.9,7.37-.66,25.47,2.82,26.34,3.77s3.79,12.63,6.76,17.42,11.7,6.93,15.36,17.67c-5.52,2.59-13.2,9.14-20,13.48-6,3.78-13.07,6.59-19.55,9.81-6.77,3.37-14.24,2.91-21.09,3.7-5.6.64-15.14,4.25-21.91,0C27.59,80.06,23.25,72.42,23,63.4Z"/><path class="cls-8" d="M67.24,6C73.91-1,77.76-1.35,86,2.23,100.94,8.78,101,18,99.64,21.52c-.9,2.28-6.69,4.92-19.73-.08-3.54-1.35-8.75-5.25-10.48-8.71C67.9,9.64,64.73,8.67,67.24,6Z"/><path class="cls-2" d="M67.45,6.46c8.23-5.1,10-7.12,18.21-3.54,15,6.55,15.54,15.17,14.16,18.67"/><path class="cls-1" d="M46.75,4c8,4.67,8.56,3.79,16.6,8.46.09,0-.19.57-.28.54-8.18-3.38-8.14-3.47-16.32-6.84-.12,0,.18-.22.25-.11,1,1.71,4.52,10.81,10.45,12.84,5.25,1.8,10.79.07,16.45-3.54.72-.46,2.43-6.43-7.52-10C58.14,2.47,49.79,2.9,47.23,2.94,47,3,46.54,3.89,46.75,4Z"/><path class="cls-2" d="M46.75,4c8,4.67,8.56,3.79,16.6,8.46.09,0-.19.57-.28.54-8.18-3.38-8.14-3.47-16.32-6.84-.12,0,.18-.22.25-.11,1,1.71,4.52,10.81,10.45,12.84,5.25,1.8,10.79.07,16.45-3.54.72-.46,2.43-6.43-7.52-10C58.14,2.47,49.79,2.9,47.23,2.94,47,3,46.54,3.89,46.75,4Z"/><path class="cls-9" d="M75.59,8.86c.91-1.07,4.35-.28,4.94,0s3.26,3.27,3.07,4.36-1.52-2.83-3.3-4S74.11,10.59,75.59,8.86Z"/><path class="cls-2" d="M75.59,8.86c.91-1.07,4.35-.28,4.94,0s3.26,3.27,3.07,4.36-1.52-2.83-3.3-4S74.11,10.59,75.59,8.86Z"/><path class="cls-4" d="M96.6,23c2-3.61,5.87-8.21,18.05-6.6,11,1.45,20.42,3.54,25.91,9,7.33,7.22,8.17,18.27,9.75,25.64,1.48,7,.44,16.72-2,27.24-2.08,9-4,18.56-9.7,25.81-13,16.48-28,13.7-22.25,6.86s6.65-17.95,5-25.14c-1.59-6.92-4.38-7.5-14.09-20.23-2.84-3.73-6.12-6.62-10.85-14.78C94.14,46.77,91.86,31.41,96.6,23Z"/><path class="cls-2" d="M97,23.16c2-3.61,5.41-7.78,17.58-6.17,11,1.45,18.66,4.78,24.15,10.19,7.33,7.22,12.22,15.92,13.8,23.29a70.37,70.37,0,0,1-.39,28.6A68.53,68.53,0,0,1,139.86,105c-13,16.48-31.79,10.58-26,3.74s3.91-14.63,2.26-21.82C114.53,80,119,76.71,109.25,64c-2.84-3.73-7.32-5.56-12-13.72C94.92,46.32,92.24,31.62,97,23.16Z"/></g></g></svg>